<svg data-v-1084b650="" xmlns="http://www.w3.org/2000/svg" viewBox="0 0 300 300"><!----> <!----> <rect data-v-1084b650="" fill="#ffffff" x="0" y="0" width="300px" height="300px" class="logo-background-square"></rect> <!----> <g data-v-1084b650="" id="472961e2-a51c-a306-6c71-c84b8f26e8ec" fill="#000000" transform="matrix(3.3999999999999995,0,0,3.3999999999999995,120.41827421188356,132.4390074491501)"><path d="M1.92 2.51C1.92 3.30 2.27 4.07 3.04 4.58C1.48 5.05 0.59 6.48 0.59 7.84C0.59 9.30 1.40 10.61 3.23 10.61C4.48 10.61 5.94 10.21 6.92 9.23C7.01 9.13 7.04 9.02 7.04 8.92C7.04 8.78 6.96 8.65 6.80 8.58C6.03 9.16 5.05 9.38 4.23 9.38C3.08 9.38 2.56 8.53 2.56 7.59C2.56 6.45 3.33 5.18 4.72 5.08C4.84 4.93 4.89 4.73 4.86 4.55C3.88 4.31 3.43 3.43 3.43 2.55C3.43 1.53 4.03 0.50 5.11 0.50C5.68 0.50 5.94 0.90 5.94 1.33C5.94 1.76 5.68 2.24 5.25 2.37C5.40 2.76 5.84 2.93 6.06 2.93C6.76 2.93 7.21 2.24 7.21 1.46C7.21 0.56 6.55-0.28 4.93-0.28C3.01-0.28 1.92 1.13 1.92 2.51ZM8.43 10.43C8.58 10.54 8.85 10.61 9.17 10.61C9.69 10.61 10.23 10.37 10.37 9.72L11.09 6.30L11.30 6.30C13.61 6.30 15.55 4.68 15.55 2.16C15.55 0.84 14.60-0.28 12.14-0.28C9.41-0.28 7.25 0.64 7.25 2.30C7.25 3.00 7.67 3.63 8.39 3.63C8.58 3.63 8.78 3.58 8.99 3.49C8.82 3.29 8.71 3.04 8.71 2.67C8.71 1.62 9.51 0.39 11.86 0.39C13.27 0.39 13.83 1.25 13.83 2.27C13.83 4.21 12.68 5.57 11.23 5.64L12.21 1.02C12.04 0.91 11.80 0.84 11.55 0.84C11.06 0.84 10.53 1.06 10.39 1.71ZM20.45 10.61C22.51 10.61 23.32 9.60 23.32 8.25C23.32 6.47 21.03 6.79 21.03 5.31C21.03 4.55 21.46 4.17 21.84 4.17C22.18 4.17 22.47 4.41 22.47 4.93C22.47 5.21 22.37 5.52 22.23 5.68C22.41 5.81 22.61 5.87 22.79 5.88C23.31 5.91 23.77 5.52 23.77 4.73C23.77 3.82 23.20 3.37 22.01 3.37C20.38 3.37 19.61 4.41 19.61 5.53C19.61 7.63 21.92 7.50 21.92 8.57C21.92 9.25 21.35 9.69 20.82 9.69C20.37 9.69 19.94 9.41 19.94 8.76C19.94 8.43 20.05 8.09 20.23 7.88C20.08 7.74 19.89 7.69 19.67 7.69C18.98 7.69 18.58 8.19 18.48 8.76C18.33 9.70 18.96 10.61 20.45 10.61ZM27.58 4.31C28.01 4.31 28.24 3.95 28.17 3.50L27.15 3.50L27.54 1.65C27.37 1.54 27.13 1.47 26.88 1.47C26.38 1.47 25.84 1.71 25.70 2.35L25.45 3.50L25.17 3.50C24.74 3.50 24.51 3.86 24.58 4.31L25.28 4.31L24.39 8.54C24.07 10.08 24.63 10.61 25.48 10.61C26.42 10.61 27.48 9.97 28.14 9.23C28.22 9.13 28.27 9.02 28.27 8.92C28.27 8.78 28.18 8.65 28.03 8.58C27.68 8.93 27.08 9.28 26.56 9.28C26.19 9.28 25.97 9.03 26.14 8.25L26.96 4.31ZM31.40 3.37C29.46 3.37 27.87 5.81 27.87 8.26C27.87 9.16 28.17 10.61 29.62 10.61C30.42 10.61 31.16 10.02 31.75 9.20C31.74 10.30 32.40 10.61 33.05 10.61C33.81 10.61 34.82 9.97 35.48 9.23C35.56 9.13 35.60 9.02 35.60 8.92C35.60 8.78 35.52 8.65 35.36 8.58C35.01 8.93 34.41 9.28 33.89 9.28C33.53 9.28 33.31 9.03 33.47 8.25L34.45 3.61C34.29 3.50 34.05 3.43 33.80 3.43C33.45 3.43 33.08 3.56 32.84 3.84C32.49 3.53 32.03 3.37 31.40 3.37ZM31.78 8.29C31.40 8.81 30.81 9.17 30.37 9.17C29.93 9.17 29.61 8.86 29.61 8.16C29.61 6.64 30.21 4.42 31.91 4.42C32.12 4.42 32.33 4.45 32.56 4.54ZM38.43 4.31C38.86 4.31 39.09 3.95 39.02 3.50L38.00 3.50L38.39 1.65C38.22 1.54 37.98 1.47 37.73 1.47C37.23 1.47 36.69 1.71 36.55 2.35L36.30 3.50L36.02 3.50C35.59 3.50 35.36 3.86 35.43 4.31L36.13 4.31L35.24 8.54C34.92 10.08 35.48 10.61 36.33 10.61C37.27 10.61 38.33 9.97 38.99 9.23C39.07 9.13 39.12 9.02 39.12 8.92C39.12 8.78 39.03 8.65 38.88 8.58C38.53 8.93 37.93 9.28 37.41 9.28C37.04 9.28 36.82 9.03 36.99 8.25L37.81 4.31ZM40.19 10.61C42.25 10.61 43.06 9.60 43.06 8.25C43.06 6.47 40.77 6.79 40.77 5.31C40.77 4.55 41.20 4.17 41.58 4.17C41.92 4.17 42.21 4.41 42.21 4.93C42.21 5.21 42.11 5.52 41.97 5.68C42.15 5.81 42.35 5.87 42.53 5.88C43.05 5.91 43.51 5.52 43.51 4.73C43.51 3.82 42.94 3.37 41.75 3.37C40.12 3.37 39.35 4.41 39.35 5.53C39.35 7.63 41.66 7.50 41.66 8.57C41.66 9.25 41.09 9.69 40.56 9.69C40.11 9.69 39.68 9.41 39.68 8.76C39.68 8.43 39.79 8.09 39.97 7.88C39.82 7.74 39.63 7.69 39.41 7.69C38.72 7.69 38.32 8.19 38.22 8.76C38.07 9.70 38.70 10.61 40.19 10.61Z"></path></g> <linearGradient data-v-1084b650="" gradientTransform="rotate(25)" id="414c86dd-6467-e69a-2402-19d235cef8da" x1="0%" y1="0%" x2="100%" y2="0%"><stop data-v-1084b650="" offset="0%" style="stop-color: rgb(0, 102, 120); stop-opacity: 1;"></stop> <stop data-v-1084b650="" offset="100%" style="stop-color: rgb(79, 168, 255); stop-opacity: 1;"></stop></linearGradient> <g data-v-1084b650="" id="217ca7a0-9f8f-fe87-7150-2c9e5fb66566" fill="url(#414c86dd-6467-e69a-2402-19d235cef8da)" stroke="none" transform="matrix(0.22850385934954498,0,0,0.22850385934954498,37.92432182108563,115.7202754205546)"><svg xmlns="http://www.w3.org/2000/svg" viewBox="0 0 100 100"><switch><g><path d="M96.1 17.3c-3.1 3.1-10.6 8.1-22.5 5.4-6.4-1.4-12.4-1.5-16.2-1.4-.1 0-.2-.1-.2-.2.3-3.2.1-7.1-1.3-11.1-.2-.6-1.1-.7-1.4-.1-1.7 3.5-6.4 11.9-13.4 15.2-2.1 1-3.9 2.4-5.2 4.2-1.4 1.9-3.3 4-5.9 6-3.3 2.5-6.6 3.8-9.2 4.6-1.9.6-2.7 2.8-1.6 4.4 1.5 2.3 4 5 7.6 6.2.2.1.3-.1.3-.3-.3-.9-1-2.9-.9-4.3 0-.2.2-.3.4-.1.7.6 2.5 1.9 5.7 1.9.2 0 .3-.3.1-.4-.7-.6-1.8-1.7-2-3.2 0-.2.2-.3.3-.2.8.5 2.6 1.6 5.3 1.6.2 0 .3-.3.1-.4-.7-.5-1.7-1.4-1.6-3.3 0-.1.1-.2.2-.2.9-.1 5-.4 8.9.8.2.1.2.3 0 .4-.8.4-1.7.8-2.6 1.3-2.3 1.3-4 2.7-5.4 4-.4.3-1.1.8-2.1 1.1-1.2.3-2.3.1-3-.2-.2-.1-.4.1-.3.3.3.5.9 1.3 1.6 1.6 1.1.5-1.3 1.2-3.2.8-1.4-.2-2.8-.8-3.4-1-.2-.1-.4.1-.3.3.4 1.1 1.5 3.9 4.6 5 .3.1.5.2.8.2 2.4.5 5-.7 6.1-2.9 0-.1.1-.2.1-.3 0 0 1-1.9 3.2-3.6 2.3-1.8 6.9-3.3 12.6-3.3h.1c2.9 1.7 4.9 5.1 4.5 8.5-.3 2-1.3 3.7-2.3 5.3-3 4.8-10.1 6-15.2 7.5-4.3 1.2-8.7 2.3-13.1 3-3.6.6-7.1 1.1-10.5 2.7-4.5 2.3-8.2 5.9-10.7 10.3-1 1.8-1.8 3.8-2.4 5.8-.2.9.7 1.6 1.5 1.2 9.9-5.6 16.2-3.7 33.5-3C53 87.9 60 80.5 61.9 78c.1-.2.5 0 .4.2-.9 3.2-4 7.5-5.8 9.8-.4.5.1 1.2.7 1 9-3.6 14.3-17.7 15.6-21.5.1-.2.4-.2.4.1.3 4.3-1.5 9.3-2.9 12.6-.3.6.5 1.1.9.6 15.1-17.7 5.7-32 3.2-35.2-.1-.2.1-.4.3-.3 3.9 1.8 7 6.4 8.6 9.4.4.6 1.3.4 1.3-.4-.1-2.5-.6-5.1-1.6-7.4-.8-1.7-1.8-3.2-3.2-4.5-1.4-1.4-3.1-2.4-4.9-3.3-1.2-.6-2.4-1.3-3.6-2.1-.6-.4-1.2-.8-1.7-1.2-.4-.3-.9-.6-1.3-.9-.2-.2 0-.4.2-.4.4.1.8.2 1.1.3.6.2 1.1.3 1.6.5 1.1.4 2.1.8 3.2 1.1 1.2.4 2.4.7 3.6 1 8.5 2.1 13.4-.4 15.7-2.3.4-.4.1-1-.5-.9-4.2.9-11.3-.7-16.4-3-4.4-2.2-10.4-3.5-12.8-3.9-.2 0-.2-.4 0-.4 3-.4 7.2.9 9.7 1.4 6.1 1.3 12.6.8 18.8-3.5 2.9-2 4.2-4.8 4.6-6.8.3-.7-.5-1.2-1-.7zM43.7 30l-.2 1c-.2.7-.6 1.4-1.3 1.7L39.5 34c-.8.4-1.4-.6-.8-1.2l3.7-3.5c.6-.6 1.5-.1 1.3.7z"></path></g></switch></svg></g></svg>